<?xml version="1.0" encoding="utf-8"?><svg width="562" height="500" viewBox="0 0 562 500" version="1.1" xmlns="http://www.w3.org/2000/svg" xmlns:xlink="http://www.w3.org/1999/xlink">
<title>Vector</title>
<desc>Created using Figma</desc>
<g id="Canvas" transform="translate(-1898 -538)">
<g id="react (1)">
<g id="Vector">
<g id="Vector">
<use xlink:href="#path0_fill" transform="translate(1898 538)" fill="#E535AB"/>
</g>
</g>
</g>
</g>
<defs>
<path id="path0_fill" d="M 395.7 0L 393.9 0C 384.1 0.2 373.7 2.54 363.1 6.46C 341.8 14.28 318.7 28.79 295.2 49.25C 290.6 53.26 285.9 57.56 281.2 62.06C 278.1 59.06 275 56.26 271.9 53.46C 247 31.38 222.5 15.85 200.1 7.48C 188.9 3.3 178 0.789999 167.8 0.549999C 157.6 0.299999 148.1 2.3 139.8 7.14C 123.6 16.47 114.8 34.85 111 57.16C 107.1 79.6 108.1 106.8 114.1 137.4C 115.3 143.5 116.7 149.7 118.3 156.1C 111.1 158.1 104.1 160.3 97.5 162.6C 68.37 172.7 44.81 185.5 27.89 199.9C 10.97 214.4 0 231.2 0 249.5C 0 268.4 11.53 285.9 29.36 301.1C 47.19 316.4 72.07 330 102.8 340.4C 107.7 342.1 112.7 343.7 117.9 345.2C 116.2 352 114.7 358.7 113.5 365.2C 107.8 395.5 107.1 422.3 111.1 444.2C 115.2 466.1 124.3 484 140.2 493.1C 156.5 502.6 177.4 501.3 199.6 493.5C 221.7 485.7 245.8 470.9 270.2 449.5C 274.1 446.1 278 442.5 281.9 438.7C 287 443.6 292.1 448.3 297.2 452.6C 320.5 472.7 343.3 486.7 364.3 494.1C 385.3 501.5 405.4 502.6 421.2 493.4C 437.6 483.9 446.9 465.2 451.2 442.1C 455.5 419 454.7 390.7 448.4 358.9C 447.4 354 446.3 348.9 445.1 343.9C 448.6 342.8 452.1 341.7 455.5 340.6C 487.1 330.2 512.8 316.8 531.3 301.6C 549.8 286.4 561.8 268.8 561.8 249.5C 561.8 230.9 550.3 214.1 532.9 199.5C 515.5 185 491.4 172.2 461.9 162.1C 456.1 160.1 450.1 158.2 443.9 156.4C 444.9 152.3 445.9 148.2 446.7 144.1C 453.4 111.5 454.6 82.5 450.7 58.87C 446.7 35.25 437.5 16.05 420.8 6.41C 413.3 2.05 404.7 0.07 395.7 0ZM 394 24.15C 400.3 23.99 405.3 25.15 408.8 27.2C 416.4 31.55 423.7 43.25 427 62.77C 430.3 82.4 429.4 108.8 423.1 139.2C 422.3 142.9 421.5 146.6 420.6 150.4C 397.4 145 372.1 141 345.5 138.5C 330.2 116.7 314.2 96.7 298 79.2C 302.4 75.07 306.6 71.07 310.9 67.37C 332.8 48.36 353.9 35.41 371.4 28.99C 380.1 25.78 387.7 24.31 394 24.15ZM 165.2 24.7L 167.6 24.7C 174.3 24.89 182.4 26.5 191.7 29.96C 210.3 36.9 232.8 50.86 255.9 71.46C 258.7 73.96 261.5 76.56 264.3 79.3C 248.1 96.7 232 116.6 216.5 138.4C 190 140.9 164.7 144.9 141.6 150.1C 140.1 144.2 138.8 138.4 137.7 132.8C 132.1 104.4 131.5 79.6 134.6 61.26C 137.8 42.93 144.7 32.03 151.8 27.91C 155.1 26 159.6 24.83 165.2 24.69L 165.2 24.7ZM 281.2 96.5C 292.3 108.4 303.3 121.8 314.2 136.3C 303.3 135.8 292.1 135.5 280.9 135.5C 269.8 135.5 258.8 135.8 247.9 136.3C 258.9 121.8 270.1 108.5 281.2 96.5ZM 280.9 159.5C 298.4 159.5 315.5 160.2 332.1 161.4C 341.5 175.2 350.6 189.7 359.3 204.7C 368 219.7 376.1 234.8 383.4 249.7C 376.1 264.8 368.1 280.1 359.3 295.2C 350.6 310.3 341.6 324.8 332.3 338.7C 315.6 339.9 298.4 340.5 280.9 340.5C 263.6 340.5 246.6 339.9 230 338.9C 220.6 325 211.4 310.5 202.6 295.4C 193.8 280.3 185.8 265.1 178.6 250.1C 185.8 235 193.8 219.9 202.5 204.8C 211.2 189.7 220.4 175.2 229.8 161.4C 246.4 160.2 263.5 159.5 280.9 159.5ZM 198.9 164.5C 193 173.7 187.3 183.1 181.7 192.8C 176.1 202.5 170.9 212.2 165.9 221.8C 158.8 205.2 152.9 188.9 148 173.3C 164 169.7 181 166.8 198.9 164.5ZM 362.9 164.6C 380.9 166.8 398.1 169.9 414.1 173.5C 409.3 189.1 403.2 205.3 396.1 221.9C 391 212.2 385.6 202.4 380 192.7C 374.4 183.1 368.7 173.7 362.9 164.6ZM 124.7 179.2C 131.7 201.9 140.9 225.8 152.1 250.1C 140.7 274.8 131.4 299 124.3 322C 119.6 320.7 115 319.2 110.5 317.7C 82.1 308 59.68 295.5 44.97 282.9C 30.25 270.3 24 258.1 24 249.5C 24 241.2 29.71 230 43.49 218.2C 57.26 206.4 78.4 194.6 105.4 185.2C 111.5 183.1 118 181.1 124.7 179.2ZM 437.5 179.5C 443.2 181.2 448.8 183 454.1 184.8C 481.5 194.2 503.3 206 517.6 218C 531.8 229.9 537.8 241.3 537.8 249.5C 537.8 258.2 531.4 270.4 516.1 283C 500.7 295.6 477.4 308.1 448 317.9C 444.9 318.9 441.8 319.9 438.6 320.8C 431.4 298 421.7 274 410.1 249.7C 421.3 225.7 430.5 202.1 437.5 179.5ZM 280.9 199.4C 267.618 199.419 254.886 204.703 245.494 214.094C 236.103 223.486 230.819 236.218 230.8 249.5C 230.792 262.799 236.065 275.557 245.459 284.97C 254.854 294.383 267.601 299.681 280.9 299.7C 287.493 299.704 294.023 298.408 300.115 295.887C 306.208 293.365 311.743 289.668 316.406 285.006C 321.068 280.343 324.765 274.808 327.287 268.715C 329.808 262.623 331.104 256.093 331.1 249.5C 331.081 236.201 325.783 223.454 316.37 214.059C 306.957 204.665 294.199 199.392 280.9 199.4ZM 396.4 277.5C 403.8 294.5 410.2 311.1 415.2 326.9C 398.9 330.6 381.3 333.6 362.9 335.8C 368.7 326.5 374.5 316.9 380.1 307.2C 385.8 297.3 391.2 287.4 396.4 277.5ZM 165.9 278.3C 170.9 288 176.2 297.7 181.8 307.4C 187.5 317.2 193.4 326.8 199.4 336.2C 181.2 334.2 163.8 331.4 147.7 327.9C 152.6 312 158.7 295.4 165.9 278.3ZM 421.8 350C 423 354.6 424 359.2 424.9 363.6C 430.7 393 431.1 418.7 427.6 437.7C 424.1 456.8 416.6 468.3 409.2 472.6C 402 476.8 389.4 477.5 372.3 471.5C 355.2 465.4 334.4 453 312.8 434.4C 308.1 430.4 303.4 426.1 298.7 421.5C 314.8 403.9 330.6 383.7 345.8 361.7C 372.8 359.3 398.4 355.4 421.8 350ZM 141.2 351.1C 164.6 356.3 190.1 359.9 216.9 362C 232.5 384 248.8 404.1 265.1 421.6C 261.5 425.1 258 428.4 254.4 431.5C 231.9 451.2 209.8 464.4 191.6 470.8C 173.3 477.3 159.6 476.6 152.2 472.3C 145 468.2 138.1 457.6 134.7 439.8C 131.4 422 131.8 397.8 137.1 369.7C 138.2 363.7 139.6 357.5 141.2 351.1ZM 314.8 363.7C 303.9 378.5 292.9 392.1 281.9 404.3C 270.6 392.1 259.2 378.5 248.1 363.9C 258.9 364.3 269.8 364.5 280.9 364.5C 292.3 364.5 303.6 364.2 314.8 363.7Z"/>
</defs>
</svg>
